<svg width="142" height="20" viewBox="0 0 142 20" fill="none" xmlns="http://www.w3.org/2000/svg">
<path d="M4.99148 15C9.2017 15 11.6374 12.3888 11.6374 8.07067C11.6374 3.77273 9.2017 1.18182 5.13317 1.18182H0.518111V15H4.99148ZM2.60298 13.1783V3.00355H5.00497C8.0277 3.00355 9.58629 4.81179 9.58629 8.07067C9.58629 11.343 8.0277 13.1783 4.87678 13.1783H2.60298ZM18.5347 15.2092C20.795 15.2092 22.3941 14.0959 22.8529 12.4091L20.9434 12.065C20.5791 13.0433 19.702 13.5426 18.555 13.5426C16.8277 13.5426 15.6672 12.4226 15.6132 10.4254H22.9811V9.71023C22.9811 5.96555 20.741 4.50142 18.393 4.50142C15.5052 4.50142 13.6025 6.70099 13.6025 9.88565C13.6025 13.104 15.4782 15.2092 18.5347 15.2092ZM15.6199 8.91406C15.7009 7.44318 16.767 6.16797 18.4065 6.16797C19.9719 6.16797 20.9974 7.32848 21.0042 8.91406H15.6199ZM32.9854 7.16655C32.5671 5.55398 31.3054 4.50142 29.0653 4.50142C26.7241 4.50142 25.0643 5.73615 25.0643 7.57138C25.0643 9.04226 25.9549 10.0206 27.8981 10.4524L29.6523 10.837C30.6509 11.0597 31.1165 11.505 31.1165 12.1527C31.1165 12.9556 30.2596 13.5831 28.9371 13.5831C27.7294 13.5831 26.9535 13.0636 26.7106 12.0447L24.7607 12.3416C25.098 14.1768 26.6229 15.2092 28.9506 15.2092C31.4538 15.2092 33.1879 13.88 33.1879 12.0043C33.1879 10.5401 32.2567 9.63601 30.354 9.19744L28.7077 8.8196C27.5675 8.54972 27.0749 8.16513 27.0817 7.46342C27.0749 6.66726 27.9386 6.1005 29.0856 6.1005C30.3406 6.1005 30.9208 6.79545 31.157 7.49041L32.9854 7.16655ZM35.406 15H37.4234V4.63636H35.406V15ZM36.4248 3.03729C37.1198 3.03729 37.7 2.49751 37.7 1.83629C37.7 1.17507 37.1198 0.628551 36.4248 0.628551C35.7231 0.628551 35.1496 1.17507 35.1496 1.83629C35.1496 2.49751 35.7231 3.03729 36.4248 3.03729ZM44.4826 19.1023C47.1207 19.1023 49.1584 17.8945 49.1584 15.2294V4.63636H47.1815V6.31641H47.033C46.6754 5.67543 45.9602 4.50142 44.0305 4.50142C41.5273 4.50142 39.6854 6.47834 39.6854 9.7777C39.6854 13.0838 41.5678 14.8448 44.017 14.8448C45.9197 14.8448 46.6552 13.772 47.0195 13.1108H47.1477V15.1484C47.1477 16.7745 46.0344 17.4762 44.5028 17.4762C42.8228 17.4762 42.1683 16.6328 41.8107 16.0391L40.0767 16.7543C40.6232 18.0227 42.0064 19.1023 44.4826 19.1023ZM44.4624 13.1715C42.6609 13.1715 41.723 11.7884 41.723 9.75071C41.723 7.7603 42.6406 6.2152 44.4624 6.2152C46.2234 6.2152 47.168 7.65234 47.168 9.75071C47.168 11.8896 46.2031 13.1715 44.4624 13.1715ZM53.8814 8.84659C53.8814 7.19354 54.8935 6.24893 56.2969 6.24893C57.6665 6.24893 58.4964 7.14631 58.4964 8.65092V15H60.5139V8.40803C60.5139 5.8441 59.1037 4.50142 56.9851 4.50142C55.4265 4.50142 54.4077 5.22337 53.9286 6.32315H53.8004V4.63636H51.864V15H53.8814V8.84659ZM67.6861 15.2092C69.9464 15.2092 71.5455 14.0959 72.0043 12.4091L70.0948 12.065C69.7305 13.0433 68.8533 13.5426 67.7063 13.5426C65.979 13.5426 64.8185 12.4226 64.7646 10.4254H72.1325V9.71023C72.1325 5.96555 69.8924 4.50142 67.5444 4.50142C64.6566 4.50142 62.7539 6.70099 62.7539 9.88565C62.7539 13.104 64.6296 15.2092 67.6861 15.2092ZM64.7713 8.91406C64.8523 7.44318 65.9183 6.16797 67.5579 6.16797C69.1232 6.16797 70.1488 7.32848 70.1555 8.91406H64.7713ZM78.2504 15.2024C80.1396 15.2024 80.8818 14.0487 81.2462 13.3874H81.4149V15H83.385V1.18182H81.3676V6.31641H81.2462C80.8818 5.67543 80.1936 4.50142 78.2639 4.50142C75.7607 4.50142 73.9188 6.47834 73.9188 9.83842C73.9188 13.1918 75.7338 15.2024 78.2504 15.2024ZM78.6958 13.4819C76.8943 13.4819 75.9564 11.8963 75.9564 9.81818C75.9564 7.7603 76.874 6.2152 78.6958 6.2152C80.4568 6.2152 81.4014 7.65234 81.4014 9.81818C81.4014 11.9975 80.4365 13.4819 78.6958 13.4819ZM91.4546 15H93.4248V13.3874H93.5935C93.9578 14.0487 94.7 15.2024 96.5892 15.2024C99.0992 15.2024 100.921 13.1918 100.921 9.83842C100.921 6.47834 99.0722 4.50142 96.569 4.50142C94.646 4.50142 93.9511 5.67543 93.5935 6.31641H93.472V1.18182H91.4546V15ZM93.4316 9.81818C93.4316 7.65234 94.3762 6.2152 96.1372 6.2152C97.9656 6.2152 98.8833 7.7603 98.8833 9.81818C98.8833 11.8963 97.9387 13.4819 96.1372 13.4819C94.4031 13.4819 93.4316 11.9975 93.4316 9.81818ZM104.09 18.8864C105.757 18.8864 106.809 18.016 107.41 16.3832L111.694 4.6566L109.515 4.63636L106.89 12.679H106.782L104.158 4.63636H101.999L105.791 15.1349L105.541 15.8232C105.028 17.1996 104.306 17.3143 103.2 17.0107L102.714 18.6637C102.957 18.7717 103.483 18.8864 104.09 18.8864Z" fill="#B0B6BB"/>
<path d="M121.39 1.18182H118.469V15H121.39V1.18182ZM125.42 15.1754C126.283 15.1754 127.032 14.4535 127.039 13.5561C127.032 12.6722 126.283 11.9503 125.42 11.9503C124.529 11.9503 123.794 12.6722 123.801 13.5561C123.794 14.4535 124.529 15.1754 125.42 15.1754ZM141.645 6.01953C141.26 2.82812 138.845 0.992897 135.647 0.992897C131.997 0.992897 129.21 3.57031 129.21 8.09091C129.21 12.598 131.949 15.1889 135.647 15.1889C139.189 15.1889 141.328 12.8342 141.645 10.2905L138.69 10.277C138.413 11.7546 137.253 12.6048 135.694 12.6048C133.596 12.6048 132.172 11.0462 132.172 8.09091C132.172 5.21662 133.575 3.57706 135.714 3.57706C137.313 3.57706 138.467 4.50142 138.69 6.01953H141.645Z" fill="#4C6FFF"/>
</svg>
