<svg width="24" height="24" viewBox="0 0 24 24" fill="none" xmlns="http://www.w3.org/2000/svg">
<path d="M5.883 18.653C5.583 18.453 5.325 18.198 5.02299 17.837C4.86624 17.6451 4.7109 17.4521 4.557 17.258C4.094 16.683 3.802 16.418 3.5 16.309C3.25029 16.2193 3.04643 16.0342 2.93325 15.7942C2.82007 15.5543 2.80685 15.2792 2.8965 15.0295C2.98614 14.7798 3.1713 14.5759 3.41126 14.4627C3.65121 14.3496 3.92629 14.3363 4.176 14.426C4.928 14.696 5.437 15.161 6.123 16.014C6.029 15.897 6.463 16.441 6.556 16.553C6.746 16.78 6.88599 16.918 6.996 16.991C7.2 17.128 7.58299 17.187 8.146 17.131C8.16899 16.749 8.24 16.378 8.34799 16.036C5.37999 15.31 3.7 13.396 3.7 9.63999C3.7 8.39999 4.06999 7.28399 4.758 6.34799C4.53999 5.45399 4.573 4.37299 5.06 3.15599C5.11526 3.01833 5.20047 2.89468 5.30943 2.79402C5.4184 2.69336 5.54839 2.6182 5.69 2.57399C5.771 2.54999 5.81699 2.53899 5.89799 2.52699C6.70099 2.40399 7.83499 2.69699 9.31299 3.62299C10.1938 3.41708 11.0954 3.31372 12 3.31499C12.912 3.31499 13.818 3.41899 14.684 3.62299C16.161 2.68999 17.297 2.39699 18.106 2.52699C18.191 2.53999 18.263 2.55699 18.324 2.57699C18.4628 2.62277 18.5899 2.69843 18.6964 2.79864C18.8028 2.89884 18.886 3.02117 18.94 3.15699C19.427 4.37299 19.46 5.45399 19.242 6.34699C19.933 7.28299 20.3 8.39199 20.3 9.63999C20.3 13.397 18.626 15.305 15.658 16.032C15.783 16.447 15.848 16.911 15.848 17.412C15.8481 18.3173 15.8441 19.2227 15.836 20.128C16.0606 20.177 16.2614 20.3018 16.4047 20.4816C16.548 20.6613 16.625 20.8849 16.6228 21.1147C16.6206 21.3446 16.5392 21.5666 16.3925 21.7435C16.2457 21.9204 16.0425 22.0414 15.817 22.086C14.678 22.314 13.834 21.554 13.834 20.561L13.836 20.115L13.841 19.41C13.846 18.702 13.848 18.072 13.848 17.412C13.848 16.715 13.665 16.26 13.423 16.052C12.762 15.482 13.097 14.397 13.963 14.3C16.93 13.967 18.3 12.818 18.3 9.63999C18.3 8.68499 17.988 7.89599 17.387 7.23599C17.2604 7.09724 17.1754 6.92562 17.1418 6.7408C17.1082 6.55599 17.1273 6.36544 17.197 6.19099C17.363 5.77699 17.434 5.23399 17.293 4.57699L17.283 4.57999C16.792 4.71899 16.173 5.01999 15.425 5.52899C15.3044 5.61085 15.1673 5.66534 15.0234 5.68866C14.8795 5.71198 14.7323 5.70356 14.592 5.66399C13.7479 5.43028 12.8758 5.31286 12 5.31499C11.11 5.31499 10.228 5.43399 9.408 5.66499C9.26821 5.70425 9.12156 5.7126 8.97823 5.68946C8.8349 5.66632 8.69832 5.61224 8.578 5.53099C7.826 5.02399 7.204 4.72399 6.71 4.58399C6.566 5.23699 6.637 5.77799 6.802 6.19099C6.8718 6.36535 6.8911 6.55584 6.85767 6.74065C6.82425 6.92547 6.73945 7.09713 6.613 7.23599C6.016 7.88999 5.7 8.69399 5.7 9.63999C5.7 12.812 7.071 13.968 10.022 14.3C10.887 14.397 11.223 15.477 10.566 16.048C10.374 16.216 10.137 16.78 10.137 17.412V20.562C10.137 21.548 9.302 22.287 8.177 22.09C7.94876 22.0499 7.74153 21.9318 7.59071 21.7559C7.4399 21.58 7.35486 21.3571 7.35014 21.1254C7.34541 20.8938 7.4213 20.6676 7.56482 20.4857C7.70834 20.3038 7.91058 20.1773 8.137 20.128V19.138C7.227 19.199 6.475 19.05 5.883 18.653Z" fill="#F8F8FA"/>
</svg>
